HIERARCHY
ROOT root
{
	OFFSET 0.000000 0.000000 0.000000
	CHANNELS 6 Xposition Yposition Zposition Zrotation Yrotation Xrotation
	JOINT lhip
	{
		OFFSET 0.058581 -0.082280 -0.017664
		CHANNELS 3 Zrotation Yrotation Xrotation
		JOINT lknee
		{
			OFFSET 0.043451 -0.386469 0.008037
			CHANNELS 3 Zrotation Yrotation Xrotation
			JOINT lankle
			{
				OFFSET -0.014790 -0.426874 -0.037428
				CHANNELS 3 Zrotation Yrotation Xrotation
				JOINT ltoe
				{
					OFFSET 0.041054 -0.060286 0.122042
					CHANNELS 3 Zrotation Yrotation Xrotation
					End Site
					{
						OFFSET 0.000000 0.000000 0.000000
					}
				}
			}
		}
	}
	JOINT rhip
	{
		OFFSET -0.060310 -0.090513 -0.013543
		CHANNELS 3 Zrotation Yrotation Xrotation
		JOINT rknee
		{
			OFFSET -0.043257 -0.383688 -0.004843
			CHANNELS 3 Zrotation Yrotation Xrotation
			JOINT rankle
			{
				OFFSET 0.019056 -0.420046 -0.034562
				CHANNELS 3 Zrotation Yrotation Xrotation
				JOINT rtoe
				{
					OFFSET -0.034840 -0.062106 0.130323
					CHANNELS 3 Zrotation Yrotation Xrotation
					End Site
					{
						OFFSET 0.000000 0.000000 0.000000
					}
				}
			}
		}
	}
	JOINT lowerback
	{
		OFFSET 0.004439 0.124404 -0.038385
		CHANNELS 3 Zrotation Yrotation Xrotation
		JOINT upperback
		{
			OFFSET 0.004488 0.137956 0.026820
			CHANNELS 3 Zrotation Yrotation Xrotation
			JOINT chest
			{
				OFFSET -0.002265 0.056032 0.002855
				CHANNELS 3 Zrotation Yrotation Xrotation
				JOINT lowerneck
				{
					OFFSET -0.013390 0.211636 -0.033468
					CHANNELS 3 Zrotation Yrotation Xrotation
					JOINT upperneck
					{
						OFFSET 0.010113 0.088937 0.050410
						CHANNELS 3 Zrotation Yrotation Xrotation
						End Site
						{
							OFFSET 0.000000 0.000000 0.000000
						}
					}
				}
				JOINT lclavicle
				{
					OFFSET 0.071702 0.114000 -0.018898
					CHANNELS 3 Zrotation Yrotation Xrotation
					JOINT lshoulder
					{
						OFFSET 0.122921 0.045205 -0.019046
						CHANNELS 3 Zrotation Yrotation Xrotation
						JOINT lelbow
						{
							OFFSET 0.255332 -0.015649 -0.022946
							CHANNELS 3 Zrotation Yrotation Xrotation
							JOINT lwrist
							{
								OFFSET 0.265709 0.012698 -0.007375
								CHANNELS 3 Zrotation Yrotation Xrotation
								End Site
								{
									OFFSET 0.000000 0.000000 0.000000
								}
							}
						}
					}
				}
				JOINT rclavicle
				{
					OFFSET -0.082954 0.112472 -0.023707
					CHANNELS 3 Zrotation Yrotation Xrotation
					JOINT rshoulder
					{
						OFFSET -0.113228 0.046853 -0.008472
						CHANNELS 3 Zrotation Yrotation Xrotation
						JOINT relbow
						{
							OFFSET -0.260127 -0.014369 -0.031269
							CHANNELS 3 Zrotation Yrotation Xrotation
							JOINT rwrist
							{
								OFFSET -0.269108 0.006794 -0.006027
								CHANNELS 3 Zrotation Yrotation Xrotation
								End Site
								{
									OFFSET 0.000000 0.000000 0.000000
								}
							}
						}
					}
				}
			}
		}
	}
}
MOTION
Frames: 10
Frame Time: 0.033333
-0.221455 0.213991 0.914659 118.469235 -17.180682 134.401289 7.039479 -8.345428 -39.906794 -6.775006 -8.241278 8.582887 -9.350133 0.746593 -7.591334 0.000000 -0.000000 0.000000 -21.598935 -11.409150 -76.323408 0.033138 -19.239330 38.958287 7.070232 -8.350488 -5.193774 0.000000 -0.000000 0.000000 11.368912 -9.389867 57.570625 -6.119294 8.133158 2.892485 2.902691 3.437404 2.010614 -3.569642 -18.338432 -0.506738 12.390287 -3.426834 -16.667204 -18.386279 -31.726820 2.546422 -62.450139 -18.734722 38.180954 -7.368008 -82.963349 2.022995 18.084210 -22.682604 -85.086595 -6.504024 36.925366 1.928160 -23.541174 11.846406 -33.127369 -4.083828 8.169798 -34.531058 -33.958541 17.290237 16.672669 
-0.218772 0.213721 0.914367 118.558223 -17.346078 134.824929 7.094597 -8.282220 -39.921475 -6.834660 -8.563085 7.882965 -9.626350 0.991164 -7.242751 0.000000 -0.000000 0.000000 -21.818579 -11.520461 -76.502968 0.161153 -19.347243 38.976211 7.118798 -8.620865 -5.578504 0.000000 -0.000000 0.000000 11.212542 -9.452366 57.570720 -6.068020 8.223664 2.689582 2.885037 3.512228 2.287135 -3.401329 -18.281662 -0.857746 12.303765 -3.550792 -16.630294 -18.471459 -31.455596 2.491502 -62.609076 -18.987369 38.483675 -11.943709 -82.917296 8.013629 20.913656 -20.796685 -86.098872 -6.155332 36.814607 1.942926 -24.141043 11.801924 -33.361088 -4.003146 8.166627 -33.779638 -35.816663 17.921703 16.425259 
-0.216698 0.214055 0.914346 118.706274 -17.648903 135.089785 7.025579 -8.458787 -39.904445 -6.859810 -8.770105 7.307870 -9.657433 1.218459 -6.643222 0.000000 -0.000000 0.000000 -21.898123 -11.787298 -76.719919 0.125450 -19.153657 39.276088 7.252447 -8.900814 -5.949309 0.000000 -0.000000 0.000000 11.206673 -9.505858 57.248301 -5.876899 8.237707 2.861436 2.886008 3.487744 2.424434 -3.411596 -18.300649 -1.033356 12.375437 -3.602711 -16.612403 -18.388793 -31.450075 2.550778 -62.767353 -19.208060 38.722161 -11.142601 -82.608572 7.158386 23.095539 -18.389914 -87.800544 -6.115901 36.590362 1.942000 -24.135330 11.706541 -33.052240 -4.164521 8.607783 -33.375986 -36.178622 17.762940 16.109859 
-0.214841 0.214215 0.914651 118.581133 -17.794235 135.468278 6.812844 -8.466753 -40.001678 -6.785197 -8.825455 7.037166 -9.481276 1.458383 -6.248291 0.000000 -0.000000 0.000000 -21.929812 -11.902059 -76.992976 0.346817 -18.876686 39.274525 7.202321 -9.287990 -6.291586 0.000000 -0.000000 0.000000 11.047498 -9.486257 56.912473 -5.855232 8.260628 2.941231 2.821943 3.407342 2.630495 -3.240786 -18.398285 -1.745851 12.082099 -3.373112 -16.213684 -18.156846 -31.336899 2.456362 -62.859351 -19.576814 38.984813 -15.489763 -82.348991 12.695523 26.092420 -16.322076 -89.277600 -6.130358 36.453884 1.841025 -24.148826 11.988102 -33.050700 -4.486674 8.681180 -32.952795 -36.943751 18.403443 16.035376 
-0.213103 0.214272 0.915235 118.449277 -17.737878 135.763079 6.793396 -8.290961 -40.096497 -6.821242 -9.008559 6.877279 -9.669815 1.569838 -5.926379 0.000000 -0.000000 0.000000 -21.858857 -11.773213 -77.172161 0.465826 -18.645533 39.150769 7.146370 -9.656073 -6.338115 0.000000 -0.000000 0.000000 10.759125 -9.445344 56.639346 -5.766326 8.328780 2.843197 2.750323 3.451637 2.921916 -3.074800 -18.265328 -2.157588 12.027990 -3.587187 -15.863701 -17.956205 -31.175109 2.439687 -62.871712 -19.915630 39.306732 -20.476380 -81.903011 19.274643 29.311037 -15.277698 -90.502734 -6.104549 36.349710 1.773941 -24.194317 12.416082 -33.043070 -4.380097 8.492457 -32.098678 -37.592748 18.803239 15.818181 
-0.211454 0.214740 0.915888 118.251007 -17.564363 135.839620 6.844672 -8.049923 -39.948529 -6.883861 -9.195107 6.826517 -9.702257 1.662367 -5.678150 0.000000 -0.000000 0.000000 -21.560948 -11.464292 -77.198010 0.571990 -18.161467 38.948223 6.980620 -10.016543 -6.405400 0.000000 -0.000000 0.000000 10.425734 -9.304560 56.803323 -5.771778 8.357937 2.507851 2.831231 3.534614 3.003388 -3.167738 -18.455447 -2.234523 12.230485 -3.558203 -15.640216 -17.757373 -31.101374 2.384598 -62.978366 -19.936276 39.449543 -19.095980 -81.408893 17.286357 30.736662 -13.029989 -92.552890 -6.062246 36.452283 1.762655 -23.950286 12.597615 -32.627329 -4.133282 8.567462 -31.405177 -36.976979 18.284295 15.636760 
-0.209778 0.215575 0.916075 118.093328 -17.559294 135.870621 6.831580 -8.079720 -39.760612 -7.007282 -9.722962 6.667203 -9.546359 1.916289 -5.572675 0.000000 -0.000000 0.000000 -21.423847 -11.570348 -77.225413 0.927753 -17.836701 38.994115 6.925200 -10.295432 -6.524361 0.000000 -0.000000 0.000000 10.182645 -9.253220 56.578443 -5.654429 8.368226 2.537274 2.810884 3.552307 3.239149 -3.135312 -18.571788 -2.840492 12.277361 -3.602065 -15.337825 -17.680641 -31.213358 2.291382 -62.881861 -20.102426 39.860325 -22.454806 -81.520689 21.731493 33.923781 -10.349801 -93.908657 -6.070675 36.597713 1.408128 -23.708572 12.803065 -32.326914 -4.157071 8.566112 -30.720350 -36.113155 18.125756 16.042986 
-0.208661 0.216305 0.916777 117.994966 -17.544867 135.817416 6.804196 -8.092517 -39.722042 -7.170357 -10.112907 6.855066 -9.452470 2.131508 -5.483986 0.000000 -0.000000 0.000000 -21.355979 -11.386761 -77.227698 1.020658 -17.287146 39.012031 6.867053 -10.844553 -6.458060 0.000000 -0.000000 0.000000 10.009301 -9.183176 56.459164 -5.488494 8.459118 2.487854 2.806726 3.648010 3.370089 -3.080616 -18.769616 -3.264727 12.350275 -3.754550 -15.160983 -17.583073 -31.319425 2.354141 -62.882739 -20.473447 40.200803 -25.724140 -81.096515 26.090520 37.099844 -8.768390 -95.317338 -5.892174 36.717205 1.392630 -23.709701 12.653600 -32.180768 -4.230731 8.484521 -30.105307 -35.688363 18.288054 16.403450 
-0.208247 0.217230 0.917796 117.770118 -17.465703 135.712505 6.946830 -8.419288 -39.654038 -7.306866 -10.650805 7.043933 -8.964543 2.737276 -5.524239 0.000000 -0.000000 0.000000 -21.370517 -11.180212 -77.165749 1.482535 -16.612333 38.826332 6.753971 -11.647554 -6.224703 0.000000 -0.000000 0.000000 9.849348 -9.106236 56.369824 -5.415587 8.581635 2.410110 2.793287 3.730347 3.584139 -3.337025 -19.072102 -3.604413 12.534402 -3.417450 -14.983725 -17.185675 -31.391762 2.243141 -63.114147 -20.578337 40.675757 -22.108470 -81.285967 21.558102 38.402514 -5.459707 -97.897933 -6.155854 36.700013 1.145470 -23.105009 12.677967 -31.153061 -4.408850 8.321050 -29.904788 -33.027528 16.966373 16.342257 
-0.208277 0.218644 0.918998 117.505138 -17.427377 135.402807 6.611769 -8.500170 -39.554722 -7.365398 -11.113014 7.751094 -8.763351 2.942427 -5.730103 0.000000 -0.000000 0.000000 -21.349344 -10.940531 -76.958609 1.788376 -15.777949 38.767728 6.608466 -12.362992 -6.026336 0.000000 -0.000000 0.000000 9.732576 -9.082379 56.292387 -5.342982 8.759253 2.395733 2.714923 3.739849 3.763595 -3.248957 -19.824931 -4.132959 12.485154 -3.337644 -14.738726 -17.203068 -31.465114 2.291062 -62.971821 -20.709054 41.080625 -27.091642 -81.402180 29.003506 42.621719 -3.451786 -98.472848 -6.492388 36.882434 0.855177 -22.221513 12.475430 -30.453696 -4.748587 8.185923 -29.725279 -31.648956 16.156939 15.560607 
